<?xml version="1.0" standalone="no"?>
<!DOCTYPE svg PUBLIC "-//W3C//DTD SVG 20010904//EN"
 "http://www.w3.org/TR/2001/REC-SVG-20010904/DTD/svg10.dtd">
<svg version="1.0" xmlns="http://www.w3.org/2000/svg"
 width="1000.000000pt" height="1000.000000pt" viewBox="0 0 1000.000000 1000.000000"
 preserveAspectRatio="xMidYMid meet">

<g transform="translate(0.000000,1000.000000) scale(0.100000,-0.100000)"
fill="#000000" stroke="none">
<path d="M0 5000 l0 -5000 5000 0 5000 0 0 5000 0 5000 -5000 0 -5000 0 0
-5000z m3577 3794 c-3 -3 -12 -4 -19 -1 -8 3 -5 6 6 6 11 1 17 -2 13 -5z
m-617 -178 c0 -2 -8 -10 -17 -17 -16 -13 -17 -12 -4 4 13 16 21 21 21 13z
m623 -23 c-7 -2 -21 -2 -30 0 -10 3 -4 5 12 5 17 0 24 -2 18 -5z m-603 -37 c0
-2 -8 -10 -17 -17 -16 -13 -17 -12 -4 4 13 16 21 21 21 13z m1211 -13 c13 -16
12 -17 -3 -4 -10 7 -18 15 -18 17 0 8 8 3 21 -13z m-542 -1080 c12 -10 24 -35
28 -55 5 -32 1 -41 -25 -68 -39 -39 -74 -39 -113 -1 -37 38 -39 82 -4 116 29
30 83 33 114 8z m3814 -1004 c25 -31 22 -85 -8 -114 -34 -35 -78 -33 -116 4
-38 39 -38 74 1 113 27 26 36 30 68 25 20 -4 45 -16 55 -28z m-1518 -475 c21
-10 38 -27 44 -46 15 -43 15 -1833 0 -1876 -22 -65 20 -62 -988 -62 -1005 0
-968 -2 -990 60 -8 23 -11 232 -11 716 0 376 2 684 3 684 2 0 52 -48 110 -107
l107 -108 0 -402 0 -403 284 0 283 0 67 61 66 61 0 430 0 430 -67 69 -66 69
-394 0 -393 0 0 174 c0 103 5 186 11 206 22 61 -16 59 987 60 813 0 918 -2
947 -16z m-1277 -986 l-3 -373 -95 0 -95 0 -3 373 -2 372 100 0 100 0 -2 -372z
m3919 -750 c-2 -18 -4 -4 -4 32 0 36 2 50 4 33 2 -18 2 -48 0 -65z m-5926
-597 c17 -18 29 -40 29 -56 0 -38 -50 -85 -90 -85 -44 0 -80 39 -80 85 0 79
84 112 141 56z m-731 -303 c87 -45 99 -85 100 -326 0 -170 0 -173 -25 -197
l-24 -25 -222 0 c-187 0 -225 -3 -249 -16 -49 -29 -60 -62 -60 -173 l0 -101
-53 0 c-77 0 -151 25 -181 61 -39 46 -48 92 -44 225 3 109 5 124 28 157 13 20
41 45 61 56 34 20 53 21 278 21 223 0 241 1 250 18 19 35 -5 42 -146 42 l-133
0 0 69 c0 80 11 115 48 155 44 47 76 55 207 56 106 0 126 -3 165 -22z m4531
-687 c37 -38 39 -82 4 -116 -51 -52 -145 -16 -145 55 0 40 47 90 85 90 16 0
38 -12 56 -29z m1350 -314 c39 -29 39 -38 39 -697 l0 -642 -29 -29 -29 -29
-355 0 -354 0 -27 26 -26 27 0 654 0 654 25 24 24 25 358 0 c266 -1 362 -4
374 -13z"/>
<path d="M5092 5497 l-72 -72 0 -426 0 -426 73 -72 72 -71 313 0 312 0 0 190
0 190 -130 0 -130 0 0 -60 0 -60 -85 0 -85 0 0 310 0 310 85 0 85 0 0 -60 0
-60 130 0 130 0 0 190 0 190 -313 0 -313 0 -72 -73z"/>
<path d="M1664 3235 c-8 -19 3 -35 26 -35 19 0 30 17 23 38 -6 17 -42 15 -49
-3z"/>
<path d="M7335 2280 c-4 -6 32 -10 99 -10 64 0 106 4 106 10 0 6 -40 10 -99
10 -56 0 -103 -4 -106 -10z"/>
<path d="M7100 1670 l0 -540 340 0 340 0 0 540 0 540 -340 0 -340 0 0 -540z"/>
<path d="M7412 1078 c-36 -36 6 -91 46 -62 35 24 23 74 -18 74 -9 0 -21 -5
-28 -12z"/>
</g>
</svg>
